# xmcd
#
# Track frame offsets: 
#        150
#        5693
#        23383
#        46820
#        60869
#        95480
#        101886
#        129436
#        149618
#        178905
#        235075
#        257412
#        308079
#        330289
#
# Disc length: 4726 seconds
#
# Revision: 0
# Processed by: cddbd v1.5.2PL0 Copyright (c) Steve Scherf et al.
# Submitted via: ExactAudioCopy v0.95a5
#
DISCID=ad12740e
DTITLE=new riders of the purple sage - AT-40 Beach Club 10-31-05
DYEAR=2005
DGENRE=Alternative
TTITLE0=zane kesey intro
TTITLE1=panama red
TTITLE2=lonesome LA cowboy
TTITLE3=sunday susie
TTITLE4=truck drivin' man
TTITLE5=david nelson intros bill laymon
TTITLE6=lochinvar
TTITLE7=contract
TTITLE8=henry
TTITLE9=portland woman
TTITLE10=jam
TTITLE11=hand jive
TTITLE12=louisiana lady
TTITLE13=dead flowers
EXTD=
EXTT0=
EXTT1=
EXTT2=
EXTT3=
EXTT4=
EXTT5=
EXTT6=
EXTT7=
EXTT8=
EXTT9=
EXTT10=
EXTT11=
EXTT12=
EXTT13=
PLAYORDER=
